<?xml version="1.0" encoding="UTF-8" standalone="no"?>
<!-- Created with Inkscape (http://www.inkscape.org/) -->

<svg
   width="512"
   height="512"
   viewBox="0 0 135.46666 135.46667"
   version="1.1"
   id="svg5"
   xml:space="preserve"
   inkscape:version="1.2.2 (732a01da63, 2022-12-09)"
   sodipodi:docname="FormulaGenerator.svg"
   xmlns:inkscape="http://www.inkscape.org/namespaces/inkscape"
   xmlns:sodipodi="http://sodipodi.sourceforge.net/DTD/sodipodi-0.dtd"
   xmlns="http://www.w3.org/2000/svg"
   xmlns:svg="http://www.w3.org/2000/svg"><sodipodi:namedview
     id="namedview7"
     pagecolor="#ffffff"
     bordercolor="#000000"
     borderopacity="0.25"
     inkscape:showpageshadow="2"
     inkscape:pageopacity="0.0"
     inkscape:pagecheckerboard="0"
     inkscape:deskcolor="#d1d1d1"
     inkscape:document-units="mm"
     showgrid="false"
     inkscape:zoom="1.0444209"
     inkscape:cx="258.03773"
     inkscape:cy="173.30177"
     inkscape:window-width="1920"
     inkscape:window-height="1009"
     inkscape:window-x="-8"
     inkscape:window-y="-8"
     inkscape:window-maximized="1"
     inkscape:current-layer="layer1" /><defs
     id="defs2"><rect
       x="194.98533"
       y="163.84184"
       width="274.87515"
       height="265.39669"
       id="rect380" /></defs><g
     inkscape:label="Lager 1"
     inkscape:groupmode="layer"
     id="layer1"><g
       id="g416"
       transform="translate(7.7932291,1.0557561)"><g
         inkscape:label="Layer 1"
         id="layer1-1"
         transform="matrix(1.0193421,0,0,1.0193421,-162.70183,-469.68096)"><g
           id="g3268"
           transform="matrix(0.1,0,0,-0.1,161.06329,551.13109)"><path
             id="path3270"
             d="m 609,722 c 0,-30 -22,-43 -42,-43 -19,0 -41,13 -41,42 0,14 8,37 37,41 -22,19 -53,21 -63,21 -45,0 -79,-25 -93,-209 L 388,325 c -8,-111 -44,-402 -57,-454 -22,-90 -70,-177 -165,-177 -60,0 -110,35 -110,83 0,30 22,43 42,43 19,0 41,-13 41,-42 0,-14 -8,-37 -37,-41 21,-18 51,-21 64,-21 57,0 93,45 106,209 l 19,249 c 9,121 45,403 57,458 17,76 56,173 151,173 60,0 110,-35 110,-83 z"
             inkscape:connector-curvature="0"
             style="fill:currentColor" /></g></g><text
         xml:space="preserve"
         transform="matrix(2.1691917,0,0,2.1691917,-368.08007,-312.68713)"
         id="text378"
         style="font-style:normal;font-variant:normal;font-weight:bold;font-stretch:normal;font-size:15.3376px;font-family:'Open Sans';-inkscape-font-specification:'Open Sans Bold';white-space:pre;shape-inside:url(#rect380);fill:#000000;stroke-width:7.96346"><tspan
           x="194.98438"
           y="177.79701"
           id="tspan430">gen</tspan></text></g></g></svg>
