<?xml version="1.0" standalone="no"?>
<!DOCTYPE svg PUBLIC "-//W3C//DTD SVG 20010904//EN"
 "http://www.w3.org/TR/2001/REC-SVG-20010904/DTD/svg10.dtd">
<svg version="1.0" xmlns="http://www.w3.org/2000/svg"
 width="700.000000pt" height="700.000000pt" viewBox="0 0 700.000000 700.000000"
 preserveAspectRatio="xMidYMid meet">
<metadata>
Created by potrace 1.14, written by Peter Selinger 2001-2017
</metadata>
<g transform="translate(0.000000,700.000000) scale(0.100000,-0.100000)"
fill="#000000" stroke="none">
<path d="M3010 6418 c-321 -48 -551 -328 -679 -828 -16 -63 -32 -133 -35 -155
-4 -22 -11 -67 -16 -100 -5 -33 -12 -76 -14 -95 -3 -19 -16 -109 -30 -200 -13
-91 -27 -187 -30 -215 -4 -27 -8 -63 -10 -80 -2 -16 -7 -55 -10 -85 -4 -30 -9
-66 -12 -80 -2 -14 -6 -46 -9 -73 -3 -26 -7 -60 -9 -75 -3 -15 -7 -52 -10 -82
-3 -30 -8 -64 -10 -75 -2 -11 -7 -49 -11 -85 -3 -36 -8 -72 -10 -80 -2 -8 -7
-49 -10 -90 -3 -41 -8 -82 -10 -90 -2 -8 -7 -44 -10 -80 -3 -36 -8 -81 -10
-100 -5 -43 -14 -128 -21 -195 -5 -60 -14 -141 -19 -175 -2 -14 -6 -65 -10
-115 -3 -49 -8 -106 -10 -125 -3 -19 -7 -73 -10 -120 -3 -47 -7 -105 -9 -130
-3 -25 -7 -88 -11 -140 -3 -52 -8 -111 -10 -130 -2 -19 -7 -75 -10 -125 -3
-49 -7 -106 -10 -125 -2 -19 -7 -80 -10 -135 -3 -55 -8 -116 -10 -135 -2 -19
-7 -75 -10 -125 -8 -124 -13 -185 -31 -365 -3 -30 -9 -82 -14 -115 -5 -33 -12
-80 -15 -105 -4 -24 -8 -48 -11 -51 -2 -4 -6 -24 -10 -45 -15 -104 -61 -247
-109 -344 -67 -132 -152 -211 -263 -244 -118 -34 -314 -3 -416 67 l-38 25 40
13 c57 17 105 60 132 116 31 67 24 158 -17 217 -80 113 -256 123 -349 18 -59
-67 -65 -191 -14 -300 65 -139 219 -242 411 -275 415 -72 749 176 933 693 33
93 68 216 80 285 3 17 11 57 17 90 15 83 16 86 34 211 15 105 19 130 30 199 3
17 7 50 10 75 3 25 12 97 21 160 8 63 17 131 19 150 4 33 14 111 35 280 9 69
34 280 46 390 2 25 6 61 9 80 7 53 26 239 30 285 2 22 7 65 10 95 6 54 10 101
20 230 2 36 7 85 9 110 2 25 7 86 11 135 11 147 15 197 20 260 3 33 7 94 10
135 3 41 7 100 10 130 2 30 7 93 11 140 3 47 7 105 9 130 2 25 7 81 10 125 3
44 8 103 10 130 2 28 7 86 10 130 9 135 20 226 46 398 10 70 25 154 33 185 8
31 17 68 20 82 10 53 47 154 77 210 46 86 92 135 157 167 51 25 68 28 157 28
113 0 210 -25 285 -75 l43 -28 -41 -13 c-180 -54 -205 -315 -39 -401 78 -40
203 -23 263 36 48 49 71 154 52 239 -53 237 -361 400 -668 355z"/>
<path d="M3549 4152 c-149 -40 -227 -136 -233 -287 -5 -109 43 -215 119 -261
l34 -20 -45 -39 c-67 -55 -81 -100 -58 -177 3 -9 22 -32 43 -51 l39 -35 -44
-12 c-67 -19 -131 -80 -149 -143 -36 -130 24 -236 165 -291 63 -25 117 -31
260 -29 309 3 487 120 495 323 3 70 -14 142 -43 175 -67 78 -140 101 -333 104
-170 2 -202 7 -225 32 -16 18 -16 22 -2 53 l16 33 104 0 c212 1 350 88 383
241 11 54 7 127 -9 167 -9 21 -16 41 -16 45 0 4 32 16 70 25 l70 17 0 67 0 66
-173 1 c-94 1 -224 5 -287 8 -93 5 -127 3 -181 -12z m252 -182 c30 -35 37 -69
34 -147 -4 -98 -67 -153 -157 -139 -59 10 -77 23 -99 69 -39 87 -12 222 49
245 70 28 136 17 173 -28z m51 -774 c48 -7 91 -34 96 -61 21 -103 -95 -167
-292 -162 -103 3 -153 21 -177 65 -35 64 2 128 87 154 42 13 205 15 286 4z"/>
<path d="M4605 4157 c-164 -42 -271 -161 -306 -342 -14 -70 -13 -201 1 -271
34 -163 144 -282 300 -324 72 -19 80 -20 180 -21 102 0 217 20 277 48 l38 18
3 98 c1 53 0 97 -2 97 -2 0 -24 -8 -48 -19 -117 -50 -297 -66 -371 -33 -24 11
-54 30 -67 43 -31 33 -60 98 -60 137 l0 32 301 0 301 0 -5 118 c-3 64 -7 124
-9 132 -21 74 -36 105 -67 146 -48 63 -110 110 -174 130 -69 21 -228 27 -292
11z m192 -178 c58 -22 112 -99 113 -161 l0 -28 -179 0 -179 0 5 38 c6 41 26
85 52 113 39 43 129 61 188 38z"/>
<path d="M5756 4148 c-40 -14 -75 -36 -109 -69 -28 -27 -52 -49 -53 -49 -1 0
-9 27 -18 59 -9 32 -22 61 -29 63 -10 3 -151 2 -179 -1 -5 -1 -8 -212 -8 -469
l0 -468 128 1 127 0 1 250 c1 315 8 367 57 439 60 86 228 80 273 -10 17 -35
19 -69 24 -359 l5 -320 125 0 125 0 1 320 c1 176 -2 346 -8 379 -16 107 -67
179 -155 223 -77 37 -217 42 -307 11z"/>
</g>
</svg>
